<svg width="410.294" height="410.295" viewBox="0 0 108.557 108.557" xmlns="http://www.w3.org/2000/svg"><circle cx="54.279" cy="54.279" r="54.279" fill="#fff" paint-order="stroke fill markers"/><g paint-order="stroke fill markers"><path d="M62.205 51.897c-.57-.73-2.257-5.072-2.257-5.812 0-.133.287-.243.638-.243.35 0 .842.932 1.092 2.07.488 2.224 1.734 3.536 1.734 1.827 0-.57-.304-1.835-.676-2.812-.371-.978-.405-1.777-.074-1.777.86 0 1.443 1.823 1.443 4.519 0 2.559-.856 3.563-1.9 2.228zm3.648-.685c-.908-2.742-1.666-6.376-1.387-6.654.177-.178.948.242 1.713.934 1.35 1.222 1.39 1.215 1.39-.235 0-2.155.8-1.833 2.77 1.114l1.733 2.589.722-6.928 1.612 2.598c1.88 3.028 2.412 3.328 1.46.82-.373-.977-.677-2.434-.677-3.238v-1.46l3.286 3.086-.338-1.769c-.199-1.043-.02-1.77.436-1.77.425 0 .795.546.822 1.213.041 1.032.133 1.006.616-.173.524-1.279.63-1.23 1.365.638 1.068 2.711.58 4.895-.553 2.48l-.814-1.732.266 1.905c.302 2.176-.58 2.435-2.47.726-1.256-1.138-1.276-1.11-.554.789.96 2.526.494 2.94-1.694 1.507-1.734-1.136-1.899-1.06-2.033.952-.12 1.794-2.102 1.505-3.372-.492l-1.224-1.923.435 1.905c.478 2.098-.422 2.52-1.808.85-1.217-1.467-1.543-.871-.716 1.305.466 1.226.465 1.828-.002 1.828-.383 0-.826-.39-.984-.866zm7.951-5.716a.347.347 0 00-.346-.346.347.347 0 00-.347.346.347.347 0 00.693 0zm9.939-.228c1.537-1.699 1.445-2.43-.413-3.245-2.197-.964-2.076-3.427.174-3.55.952-.05 2.627-.447 3.721-.88 2.512-.993 3.592-.187 4.218 3.149.684 3.648-.092 3.656-1.155.01-.686-2.352-1.159-3.01-1.855-2.58-.758.469-.778 1.052-.105 3.09 1.218 3.693.482 4.654-.906 1.184-.832-2.08-1.495-2.854-2.207-2.58-.56.215-1.019.026-1.019-.42 0-.559-.267-.526-.866.11-.607.643-.637 1.002-.098 1.202.422.157 1.345.707 2.051 1.223 1.097.802 1.163 1.201.46 2.746-.454.995-1.347 1.808-1.986 1.808-1.081 0-1.082-.087-.015-1.267zm-23.101-1.44c0-.323.467-.975 1.039-1.45 1.486-1.233 1.29-2.017-.693-2.77-1.81-.689-2.461-3.376-.866-3.57l1.559-.189c.38-.045 1.7-.5 2.932-1.012 2.606-1.083 4.338-.64 4.353 1.111.005.679.343 1.702.749 2.274.544.767.623.223.3-2.079-.337-2.396-.249-2.928.38-2.3.45.45.856 1.998.902 3.44.062 1.951-.218 2.686-1.089 2.864-.85.173-1.399-.52-1.997-2.518-.566-1.886-1.132-2.64-1.794-2.386-.532.204-.817.88-.633 1.502 1.072 3.628 1.249 5.119.554 4.69-.407-.252-.945-1.39-1.195-2.529-.312-1.422-.871-2.07-1.785-2.07-.732 0-1.557-.023-1.833-.052-1.225-.127-.885 1.567.381 1.898 1.757.46 2.405 2.019 1.524 3.665-.723 1.35-2.788 2.446-2.788 1.48zm32.318-1.792c-.628-.628-1.142-1.608-1.142-2.177 0-1.773 1.38-3.717 2.622-3.694 1.086.02 1.079.105-.08.983-1.938 1.47-1.266 4.139 1.111 4.412 1.89.217 1.914.171 1.515-2.771-.456-3.355.587-2.421 1.364 1.222.321 1.507.192 2.156-.44 2.202-.493.036-1.551.268-2.352.516-.924.286-1.872.033-2.598-.693zm-20.737-4.68c-.208-1.239-.579-2.757-.824-3.375-.564-1.424 1.52-2.325 2.84-1.229 1.769 1.468.845 6.855-1.175 6.855-.255 0-.633-1.013-.841-2.251zm1.745-2.749c-.715-1.485-.765-1.436-.809.809-.035 1.822.146 2.198.762 1.581.598-.598.61-1.22.047-2.39zm2.073.15c-.668-2.632.07-4.106.78-1.558.186.667.54 1.914.786 2.771.247.857.154 1.559-.207 1.559-.36 0-.972-1.247-1.359-2.771z" fill="#dd2120"/><path d="M48.165 101.378c-12.538-4.225-18.747-12.353-21.097-27.615-1.303-8.464.155-15.76 4.376-21.895l2.041-2.967-2.396-5.78c-2.852-6.876-2.93-10.095-.245-10.095 1.44 0 2.627 1.345 7.033 7.968 4.051 6.089 6.174 8.574 9.006 10.543 4.743 3.297 11.647 6.086 16.13 6.515 6.348.607 8.013 1.006 8.013 1.918 0 1.484-2.259 3.05-5.022 3.48l-5 .78c-3.998.621-4.637 1.762-3.387 6.044.583 1.995 2.903 7.538 5.156 12.317 2.253 4.78 4.097 9.533 4.097 10.565 0 2.22.05 2.23 2.947.646 4.439-2.426 6.14-3.856 7.109-5.973 1.43-3.127 4.224-7.97 5.37-9.307 1.552-1.812 1.99-3.67 1.116-4.723-.53-.639-.653-2.397-.361-5.184.474-4.533-.642-9.724-3.16-14.712-1.516-2.999-1.209-6.383.517-5.72.556.213 1.01.086 1.01-.284 0-.369.431-.67.958-.67 1.213 0 3.825 3.414 6.36 8.313 1.747 3.379 2.003 4.698 2.252 11.65.317 8.81-.537 12.19-5.153 20.39-3.925 6.971-6.973 9.636-14.809 12.946-5.361 2.264-17.344 2.71-22.862.85zm13.108-5.988c-2.083-1.132-4.39-4.447-7.786-11.192-2.375-4.717-4.27-7.077-5.05-6.296-.214.214-1.105 3.142-1.98 6.507-.876 3.366-1.809 6.641-2.074 7.279-.941 2.261 5.913 4.628 13.48 4.655 4.841.018 5.074-.048 3.41-.953zm-22.969-15.6c.69-6.837.257-14.04-1.166-19.398-2.284-8.6-2.523-8.786-5.054-3.937-1.338 2.563-1.512 3.977-1.507 12.25.005 10.032.45 11.738 4.077 15.652.953 1.029 1.733 2.2 1.733 2.6 0 .46.233.486.627.073.344-.362.925-3.62 1.29-7.24zm11.94-27.56c-2.13-.673-4.157-3.186-4.157-5.154 0-2.505 2.78-5.39 5.196-5.39 3.712 0 6.356 4.85 4.518 8.286-.77 1.439-4 2.75-5.558 2.258zm6.342-19.378c-.35-.666-.964-2.772-1.366-4.678-.402-1.906-.94-4.01-1.196-4.676-.697-1.817.984-1.484 1.753.348.36.857.997 2.914 1.416 4.57.712 2.82.839 2.94 1.983 1.905.672-.608 1.555-1.106 1.96-1.106.717 0 .418-2.308-.787-6.062-.371-1.158-.225-1.559.567-1.559 1.031 0 2.905 5.003 3.345 8.93.237 2.118-1.242 2.703-1.766.698-.383-1.461-.459-1.438-2.229.665-2.095 2.49-2.787 2.672-3.68.965zm10.017-.739c-.6-.969-3.196-10.772-3.196-12.063 0-2.072 1.669-1.37 4.089 1.718l2.307 2.944-.512-2.771c-.764-4.137-.758-4.676.06-4.967.943-.335 3.966 11.614 3.147 12.434-.327.327-1.871-.9-3.452-2.745-3.093-3.608-3.436-3.39-1.83 1.167.573 1.62 1.04 3.374 1.04 3.898 0 1.038-1.093 1.293-1.653.386zm8.243-4.27c-.231-.374-.997-2.323-1.702-4.33-.705-2.008-1.503-4.196-1.773-4.863-.342-.843-.166-1.212.575-1.212.586 0 1.264.623 1.506 1.385.626 1.971 1.482 1.716 2.321-.693.399-1.143 1.053-2.078 1.454-2.078.993 0 .916.982-.31 3.917-1.294 3.094-1.301 3.704-.046 3.704.547 0 1.845.323 2.884.718 2.675 1.017 1.24 2.232-1.655 1.401-2.125-.609-2.206-.562-1.803 1.046.418 1.665-.605 2.373-1.451 1.005z"/><path d="M22.964 28.681l-3.895 2.46-.203-4.602-3.543-2.944 4.314-1.615 1.705-4.28 2.87 3.604 4.597.3-2.542 3.842 1.136 4.465z" fill="#dd2120"/></g></svg>