<?xml version="1.0" encoding="UTF-8"?>
<svg width="10.939mm" height="14.717mm" version="1.1" viewBox="0 0 10.939 14.717" xml:space="preserve" xmlns="http://www.w3.org/2000/svg"><g transform="translate(-81.503 -449.59)"><text x="44.855228" y="463.33945" fill="#ffffff" font-family="'Bebas Neue'" font-size="18.258px" letter-spacing="0px" stroke-linecap="square" stroke-width=".41979" text-align="center" text-anchor="middle" style="paint-order:stroke markers fill" xml:space="preserve"><tspan x="44.855228" y="463.33945" fill="#ffffff" stroke-width=".41979">Link Napoli</tspan></text><g transform="matrix(.50095 .0036619 -.0036619 .50095 13.145 444.74)" fill="#fff"><path d="m138.32 13.666c-0.0148-0.13325-0.0627-0.53776-0.1058-0.89914l-0.0783-0.6571-0.0603-0.04214c-0.0332-0.02316-0.0652-0.04141-0.0711-0.04052-6e-3 8.84e-4 -0.036-0.01548-0.0666-0.03663-0.0307-0.02083-0.0661-0.0367-0.0787-0.03483-0.0126 0.0019-0.0239-0.0034-0.025-0.01054-1e-3 -0.0068-0.0424-0.03267-0.0915-0.05599-0.0492-0.02334-0.0906-0.04864-0.0919-0.05594-1e-3 -8e-3 -0.0129-0.01235-0.0253-0.01049-0.0126 0.0019-0.048-0.01368-0.0787-0.03483-0.0306-0.02085-0.0643-0.03697-0.0747-0.03542-0.0103 0.0015-0.02-4e-3 -0.0212-0.01111-1e-3 -0.0068-0.0335-0.0288-0.0716-0.04714-0.0382-0.0184-0.0896-0.04635-0.11411-0.06199-0.0246-0.01567-0.0495-0.02773-0.0554-0.02684-6e-3 8.83e-4 -0.0431-0.01849-0.0826-0.04339-0.0395-0.02466-0.0772-0.04418-0.0841-0.04317-7e-3 1e-3 -0.0248-0.0068-0.0399-0.01784-0.0151-0.01064-0.0773-0.04499-0.1381-0.07632-0.0609-0.03117-0.11542-0.06086-0.12125-0.06561-6e-3 -0.0048-0.0358-0.02008-0.0667-0.03374-0.0845-0.0376-0.13493-0.07234-0.13833-0.09512-3e-3 -0.0229 0.15109-0.10476 0.21621-0.11446 0.0232-0.0035 0.0461-0.01505 0.0508-0.02596 4e-3 -0.01117 0.0245-0.02204 0.0441-0.02496 0.0195-0.0029 0.0487-0.01423 0.0646-0.02633 0.0451-0.03224 0.21908-0.1088 0.26179-0.11516 0.021-0.0031 0.042-0.01445 0.0468-0.02536 4e-3 -0.01117 0.0281-0.02257 0.0518-0.02611 0.0237-0.0035 0.0468-0.01516 0.0512-0.0247 4e-3 -0.01117 0.052-0.0307 0.10575-0.04572 0.0538-0.01498 0.0967-0.03455 0.0954-0.04337-2e-3 -0.01029 0.0216-0.01962 0.051-0.024 0.0294-0.0044 0.0574-0.01673 0.062-0.02763 4e-3 -0.01117 0.0281-0.02257 0.0518-0.02611 0.0238-0.0036 0.0468-0.01516 0.0512-0.0247 4e-3 -0.01117 0.052-0.03058 0.10574-0.04571 0.0538-0.01498 0.0967-0.03456 0.0954-0.04337-2e-3 -0.01029 0.0182-0.01911 0.0433-0.02285 0.0251-0.0037 0.0588-0.01694 0.0747-0.0287 0.0159-0.01288 0.0488-0.02917 0.073-0.03815 0.0467-0.01747 0.0564-0.04406 0.0856-0.23751 9e-3 -0.06261 0.0228-0.12286 0.0296-0.13343 6e-3 -0.01147 0.0102-0.03437 8e-3 -0.05237-3e-3 -0.018-9e-5 -0.04816 6e-3 -0.06694 6e-3 -0.01859 0.0187-0.08515 0.0277-0.14786 9e-3 -0.06279 0.0221-0.12276 0.0289-0.13348 6e-3 -0.01146 0.0102-0.03437 8e-3 -0.05238-3e-3 -0.01799 8.9e-4 -0.04831 7e-3 -0.06709 0.0168-0.04704 0.0421-0.22491 0.037-0.25952-2e-3 -0.01543 4e-3 -0.02959 0.014-0.03112 0.01-0.0015 0.0157-0.0193 0.0127-0.03932-3e-3 -0.02014 3.6e-4 -0.05192 7e-3 -0.07066 6e-3 -0.01858 0.0191-0.08523 0.0273-0.14778 8e-3 -0.06254 0.0207-0.12255 0.0277-0.13329 7e-3 -0.011602 0.0106-0.034112 8e-3 -0.051866-7e-3 -0.047625 0.0291-0.18678 0.0494-0.1898 0.0235-0.00351 0.0548 0.022492 0.13176 0.10941 0.0355 0.040139 0.0732 0.080493 0.0837 0.089682 0.0516 0.045308 0.28371 0.30605 0.28598 0.32131 2e-3 0.01029 9e-3 0.01675 0.0169 0.01551 8e-3 -0.0012 0.0337 0.02225 0.0574 0.05184 0.0237 0.02957 0.0485 0.05726 0.0549 0.06144 7e-3 0.0034 0.022 0.02 0.0345 0.03508 0.0594 0.07213 0.4235 0.46625 0.44742 0.48432 0.0148 0.01068 0.0286 0.0304 0.0304 0.0424 2e-3 0.01261 0.0213 0.03124 0.0436 0.04275 0.0222 0.01159 0.0419 0.0313 0.0438 0.04404 3e-3 0.01843 0.0967 0.0094 0.43512-0.04084 0.23739-0.03535 0.56268-0.07561 0.72294-0.08883 0.20397-0.01748 0.29738-0.03139 0.31177-0.04643 0.0142-0.01639 0.0662-0.02412 0.17438-0.02597 0.0847-0.0021 0.16037-0.0046 0.16812-0.0057 0.0426-0.0063 3.3e-4 0.12099-0.0768 0.23131-0.0107 0.01586-0.0372 0.060981-0.0591 0.10171-0.0218 0.04079-0.0432 0.07863-0.0476 0.08443-4e-3 5e-3 -0.0274 0.04682-0.0512 0.0913-0.0456 0.08519-0.078 0.14123-0.10407 0.18008-9e-3 0.01297-0.0527 0.09174-0.0978 0.17509-0.0452 0.08338-0.0948 0.17015-0.11022 0.19288-0.0155 0.02258-0.0538 0.09119-0.0851 0.15198-0.0313 0.06091-0.0612 0.11547-0.0662 0.12138-5e-3 0.0051-0.0286 0.04705-0.052 0.0913-0.0235 0.04436-0.0547 0.09859-0.0693 0.12066-0.0296 0.04463-0.028 0.08491 6e-3 0.14343 0.0123 0.02157 0.0555 0.10964 0.0957 0.19561 0.0402 0.08599 0.0833 0.17398 0.096 0.19557 0.0123 0.02157 0.0253 0.05523 0.0282 0.07479 3e-3 0.01971 0.0132 0.03432 0.0235 0.03279 0.01-0.0015 0.0201 0.0099 0.0226 0.02661 4e-3 0.0262 0.0599 0.14765 0.11117 0.2414 0.01 0.0188 0.0518 0.10462 0.0922 0.19061 0.0403 0.08597 0.0823 0.17163 0.0931 0.19048 0.0194 0.0336 0.14329 0.29212 0.17668 0.36844 0.0152 0.03402 0.0101 0.0403-0.035 0.047-0.0287 0.0043-0.0609 0.0021-0.0716-0.0042-0.0111-0.0065-0.0708-0.01999-0.13356-0.02997-0.0629-0.01-0.1229-0.02349-0.13362-0.03028-0.0111-0.0065-0.0383-0.0098-0.0613-0.0063-0.0231 0.0034-0.043-0.0018-0.0445-0.01176-2e-3 -0.01029-0.0211-0.01569-0.0436-0.01234-0.0224 0.0033-0.0662-3e-3 -0.097-0.01339-0.0309-0.01085-0.0715-0.01719-0.0904-0.01438-0.0189 0.0028-0.0355-0.0029-0.037-0.01288-2e-3 -0.01029-0.0215-0.0152-0.0445-0.01177-0.0229 0.0034-0.0506 5.55e-4 -0.0613-0.0061-0.0111-0.0065-0.0729-0.02048-0.1383-0.03052-0.0654-0.0099-0.11973-0.02428-0.12086-0.03187-1e-3 -8e-3 -0.0161-0.01186-0.0332-0.0093-0.0282 0.0042-0.13374-0.01262-0.24802-0.03948-0.0998-0.02336-0.13618-0.03084-0.25992-0.05233l-0.13008-0.02274-0.0467 0.04663c-0.0257 0.02572-0.0546 0.0478-0.0642 0.04923-0.01 0.0015-0.0192 0.0098-0.0211 0.01929-1e-3 0.01073-0.0952 0.10358-0.20715 0.2098-0.11189 0.10629-0.20511 0.20063-0.20716 0.20978-1e-3 0.01072-0.0154 0.01843-0.0295 0.02054-0.0142 0.0021-0.0245 0.01184-0.0232 0.02054 2e-3 0.01029-0.011 0.02372-0.0278 0.03198-0.0167 0.0081-0.0552 0.04389-0.0858 0.07912-0.0306 0.0352-0.0691 0.07092-0.0858 0.07912-0.0167 0.0081-0.0291 0.0226-0.0277 0.03197 2e-3 0.01029-6e-3 0.01841-0.0164 0.01991-0.0103 0.0015-0.038 0.0265-0.0612 0.05542-0.0233 0.02888-0.0519 0.05427-0.0636 0.05602-0.0118 0.0018-0.0231 0.01042-0.0253 0.01828-9e-3 0.03528-0.2883 0.28846-0.32394 0.29377-0.0385 0.0057-0.0396 0.0016-0.0665-0.23625z"/><path d="m156.45 37.904c-0.0185-9e-3 -0.0867-0.01186-0.15216-0.0102-0.0653 0.0018-0.12546-0.0044-0.13344-0.01386-9e-3 -0.01047-0.0306-0.01461-0.0503-0.01167-0.0196 0.0029-0.0867-0.01043-0.14889-0.03001-0.0622-0.0192-0.12238-0.03395-0.13365-0.03228-0.0113 0.0017-0.0219-0.0059-0.0236-0.01712-2e-3 -0.0115-0.016-0.01826-0.0319-0.01589-0.0364 0.0054-0.16398-0.04313-0.16723-0.06364-1e-3 -0.0077-0.0163-0.01359-0.033-0.0111-0.0168 0.0025-0.0319-0.0044-0.0336-0.01561-2e-3 -0.0115-0.0119-0.01886-0.0217-0.0174-0.0385 0.0057-0.32233-0.1915-0.50681-0.35221-0.0557-0.04851-0.1293-0.11211-0.16353-0.14143-0.0343-0.02923-0.0809-0.07388-0.10363-0.09908-0.0227-0.02507-0.10464-0.10863-0.18187-0.18525-0.0772-0.07665-0.14193-0.14899-0.14369-0.16082-2e-3 -0.0115-0.0101-0.02038-0.0186-0.01912-9e-3 0.0013-0.0272-0.01435-0.0416-0.03509-0.0142-0.02061-0.0864-0.11175-0.16005-0.20269-0.0737-0.09094-0.13549-0.1757-0.13736-0.18824-2e-3 -0.01284-0.0103-0.0218-0.0187-0.02055-0.02 3e-3 -0.10405-0.10466-0.10928-0.13973-2e-3 -0.01414-0.0114-0.02922-0.0204-0.03183-0.0166-0.0054-0.0512-0.05344-0.29674-0.41934-0.19134-0.28509-0.24915-0.37567-0.35287-0.55288-0.0493-0.08435-0.11891-0.19835-0.15457-0.25346-0.0357-0.05512-0.0669-0.11373-0.0693-0.13031-2e-3 -0.01652-0.0134-0.02862-0.0248-0.02692-0.0112 0.0017-0.0238-0.01979-0.028-0.04801-4e-3 -0.02798-0.0165-0.04948-0.0264-0.04801-0.0104 0.0015-0.0296-0.02564-0.0429-0.06052-0.0133-0.03486-0.0338-0.07628-0.0457-0.0921-0.0348-0.0465-0.22179-0.382-0.22503-0.40374-2e-3 -0.0115-0.0333-0.06653-0.0705-0.12375-0.0371-0.05705-0.069-0.11355-0.0708-0.12562-2e-3 -0.0115-0.0146-0.03657-0.0272-0.05445-0.055-0.07483-0.11093-0.17392-0.11545-0.20431-3e-3 -0.018-0.0137-0.03122-0.0252-0.02952-0.0112 0.0017-0.0232-0.01556-0.0265-0.03797-3e-3 -0.0226-0.0174-0.05554-0.0308-0.07348-0.0136-0.01775-0.0634-0.10636-0.11097-0.19663-0.17819-0.33911-0.22104-0.41499-0.23689-0.41937-9e-3 -0.0012-0.0183-0.01773-0.0207-0.03365-2e-3 -0.01592-0.0156-0.04367-0.0291-0.06167-0.0137-0.01773-0.0716-0.1146-0.12874-0.21482-0.21318-0.37365-0.49296-0.80268-0.53019-0.81299-9e-3 -0.0012-0.0181-0.01646-0.0203-0.03131-8e-3 -0.05105-0.26562-0.35799-0.39177-0.46623-0.10558-0.09052-0.26103-0.19691-0.28302-0.19363-0.0147 0.0022-0.0281-5e-3 -0.0298-0.0162-2e-3 -0.0115-0.0207-0.01755-0.0426-0.0143-0.0218 0.0032-0.0465-0.0023-0.0551-0.0124-0.0234-0.02773-0.20493 0.0055-0.26413 0.04854-0.0781 0.05668-0.1866 0.20369-0.24253 0.329-0.156 0.34946-0.32087 1.1054-0.50701 2.3247-0.0719 0.4708-0.0943 0.60816-0.12016 0.73632-0.0155 0.07669-0.0517 0.27425-0.0803 0.43886-0.0288 0.16464-0.0569 0.31876-0.0627 0.34252-6e-3 0.02393-0.0256 0.11098-0.044 0.19398-0.0464 0.20883-0.0576 0.2519-0.18078 0.69327-0.0467 0.16732-0.0893 0.30958-0.0947 0.31616-5e-3 0.0058-0.032 0.07613-0.0593 0.15458-0.10256 0.2963-0.30149 0.68598-0.43718 0.85633-0.0795 0.09972-0.19711 0.22557-0.24884 0.26614-0.0271 0.02103-0.0531 0.04406-0.0578 0.05084-5e-3 0.0071-0.0473 0.03509-0.0947 0.0631-0.0474 0.02815-0.10082 0.06144-0.11879 0.07438-0.0177 0.01439-0.0619 0.02792-0.0977 0.03325-0.0357 0.0053-0.0941 0.02578-0.12982 0.04479-0.0508 0.02733-0.0742 0.03081-0.10812 0.0161-0.024-0.01089-0.0726-0.01465-0.10832-0.0093-0.12796 0.01906-0.53808-0.08623-0.57751-0.14828-5e-3 -7e-3 -0.0194-0.01313-0.0318-0.01128-0.042 0.0063-0.23716-0.16754-0.31355-0.27919-0.0416-0.06073-0.0863-0.12523-0.0994-0.14314-0.0131-0.01782-0.0263-0.0492-0.0294-0.06973-3e-3 -0.02012-0.0147-0.04436-0.0268-0.05345-0.11116-0.08655-0.28679-1.2543-0.25463-1.6894 4e-3 -0.04645 9e-3 -0.169 0.013-0.27266 6e-3 -0.17521 0.0194-0.40942 0.0402-0.714 5e-3 -0.06944 0.0119-0.17357 0.0158-0.23144 4e-3 -0.05788 0.0135-0.1223 0.0214-0.14352 8e-3 -0.02094 0.0114-0.05689 8e-3 -0.07938-3e-3 -0.02283-6.1e-4 -0.05842 7e-3 -0.07943 7e-3 -0.02081 0.0172-0.081 0.0227-0.13337 5e-3 -0.05237 0.0139-0.1238 0.0187-0.15895 0.0223-0.16567 0.0661-0.56217 0.0724-0.65636 4e-3 -0.0579 0.0112-0.12457 0.0163-0.14819 6e-3 -0.02393 0.0145-0.11418 0.0211-0.20096 7e-3 -0.0869 0.017-0.17744 0.023-0.20126 7e-3 -0.02375 0.0152-0.11886 0.0203-0.21127 5e-3 -0.09247 0.0129-0.20131 0.0173-0.24207 0.0134-0.12359 0.0258-0.43216 0.0334-0.82753 2e-3 -0.09193 4e-3 -0.19069 6e-3 -0.21957 2e-3 -0.02872 2e-3 -0.15073 2e-3 -0.27092-1e-3 -0.21375-1e-3 -0.25466-2e-3 -0.50985-1e-4 -0.06857-6e-3 -0.23182-0.0128-0.36253-7e-3 -0.13066-0.0145-0.31228-0.017-0.40353-0.0223-0.79453-0.27426-2.4866-0.50514-3.392-0.0267-0.10476-0.0744-0.29455-0.10605-0.42154-0.0316-0.12698-0.0731-0.28482-0.0926-0.35066-0.0199-0.06564-0.0572-0.20075-0.0841-0.29984-0.027-0.09908-0.0581-0.20219-0.0694-0.22912-0.0111-0.02682-0.0366-0.10291-0.056-0.16869-0.15668-0.52937-0.37849-1.1894-0.51978-1.5469-0.0171-0.04326-0.0473-0.12543-0.067-0.18257-0.0197-0.05727-0.0419-0.11102-0.0491-0.1194-7e-3 -0.0081-0.0297-0.06389-0.0499-0.12281-0.10616-0.30959-0.42363-1.1037-0.52182-1.3052-0.0457-0.09367-0.10991-0.2472-0.17238-0.41166-0.0336-0.08877-0.17494-0.4157-0.2874-0.66521-0.0149-0.03214-0.0493-0.11136-0.0773-0.17591-0.0281-0.06454-0.0632-0.1437-0.0781-0.17578-0.096-0.20648-0.138-0.30136-0.23783-0.53725-0.0616-0.14553-0.13403-0.31272-0.16104-0.37168-0.0587-0.12822-0.11417-0.25141-0.16688-0.37082-0.0213-0.0484-0.0489-0.10513-0.0613-0.12624-0.0122-0.0209-0.039-0.078-0.0594-0.12651-0.0204-0.04865-0.0491-0.11441-0.064-0.14664-0.0149-0.03201-0.0543-0.12007-0.0877-0.19516-0.0914-0.20562-0.19927-0.42244-0.33296-0.66885-0.0662-0.12182-0.12734-0.23928-0.13611-0.26087-9e-3 -0.0217-0.0257-0.05649-0.0377-0.07781-0.0123-0.02126-0.0531-0.10398-0.0912-0.18421-0.0381-0.08024-0.0792-0.16314-0.0913-0.18426-0.0122-0.02089-0.0458-0.09116-0.0749-0.15542-0.0292-0.06438-0.0713-0.15448-0.0939-0.2002-0.0225-0.04571-0.0434-0.1007-0.0466-0.12188-3e-3 -0.02142-0.0144-0.04259-0.0255-0.04719-0.011-0.0047-0.029-0.03779-0.0402-0.07337-0.0114-0.03553-0.0465-0.13595-0.0787-0.22275-0.032-0.08691-0.0776-0.22534-0.10133-0.3077-0.0571-0.19881-0.13592-0.82584-0.10859-0.86294 0.0113-0.01483 0.0182-0.04339 0.0154-0.06249-9e-3 -0.06029 0.0813-0.2877 0.15616-0.39332 0.0802-0.1132 0.24638-0.2685 0.29505-0.27575 0.0174-0.0026 0.0302-0.0137 0.0285-0.0249-4e-3 -0.02657 0.15279-0.04991 0.17317-0.02579 9e-3 0.01047 0.0374 0.01507 0.0641 0.01109 0.0267-4e-3 0.0551 9.88e-4 0.0629 0.0098 8e-3 0.01062 0.0428 0.0191 0.0773 0.0214 0.0347 0.0027 0.064 0.01248 0.0656 0.02308 2e-3 0.0115 0.013 0.01722 0.0255 0.01534 0.0387-0.0058 0.24798 0.11186 0.38373 0.21572 0.24059 0.184 0.33105 0.26682 0.52419 0.4801 0.10599 0.11701 0.19807 0.21662 0.20468 0.22138 0.0194 0.01401 0.17185 0.20369 0.31371 0.39057 0.0352 0.04644 0.10256 0.13466 0.14984 0.19637 0.18524 0.24178 0.8242 1.1683 0.95731 1.388 0.0349 0.05793 0.0698 0.10884 0.0776 0.11346 0.0146 0.0096 0.13104 0.18108 0.13346 0.19733 2e-3 0.01414 0.19079 0.29674 0.48569 0.72816 0.14473 0.21179 0.26373 0.38882 0.26442 0.39347 7.3e-4 0.0049 0.0515 0.07325 0.11309 0.15249 0.0616 0.07937 0.1669 0.21791 0.23423 0.30833 0.10275 0.13798 0.62078 0.72253 0.664 0.74933 8e-3 0.0038 0.0958 0.08988 0.19619 0.18946 0.10044 0.09943 0.1881 0.18489 0.19482 0.18965 0.0126 0.0099 0.23006 0.19911 0.33557 0.29359 0.0805 0.07222 0.76619 0.5784 0.86637 0.63972 0.0439 0.02693 0.127 0.08013 0.18466 0.11826 0.0577 0.03814 0.14463 0.09154 0.19317 0.11876 0.0485 0.02713 0.0995 0.05707 0.11317 0.06643 0.0138 0.0097 0.0656 0.03878 0.11532 0.06507 0.0497 0.02632 0.0958 0.05278 0.10248 0.05885 7e-3 0.0068 0.0527 0.03225 0.10247 0.05872 0.0497 0.02632 0.0957 0.05189 0.10216 0.05667 0.0382 0.02897 0.18167 0.09795 0.19851 0.09544 0.0109-0.0016 0.0243 0.0043 0.0292 0.01192 0.0119 0.01869 0.33477 0.18792 0.63732 0.33347 0.12477 0.06 0.23237 0.11469 0.23908 0.12136 7e-3 0.0068 0.16827 0.0846 0.35894 0.1729 0.19069 0.08834 0.35697 0.16667 0.36951 0.174 0.0125 0.0073 0.0572 0.02452 0.0994 0.03844 0.0421 0.01394 0.10665 0.03793 0.14327 0.05317 0.0822 0.03431 0.18135 0.07256 0.35345 0.136 0.0727 0.02684 0.1421 0.05543 0.15421 0.06373 0.0124 0.0099 0.0385 0.01267 0.0587 0.0097 0.0202-3e-3 0.038 0.0035 0.0397 0.01473 2e-3 0.0115 0.0132 0.01868 0.0258 0.01679 0.0126-0.0019 0.14272 0.035 0.28915 0.08194 0.14647 0.04692 0.27733 0.08371 0.29078 0.0817 0.0135-2e-3 0.0259 0.0053 0.0275 0.01654 2e-3 0.01151 0.0164 0.01814 0.033 0.01567 0.0165-0.0025 0.0866 0.01164 0.15563 0.03126 0.0691 0.01975 0.1597 0.04432 0.20128 0.05437 0.0416 0.01007 0.0929 0.02477 0.11392 0.03266 0.0212 0.0086 0.0568 0.01132 0.0792 8e-3 0.0226-0.0034 0.0424 0.0029 0.044 0.01402 2e-3 0.0115 0.017 0.01812 0.0338 0.01562 0.0169-0.0025 0.0478 7.62e-4 0.0689 0.0085 0.0332 0.01132 0.0889 0.02461 0.27494 0.0653 0.0418 0.0098 0.19204 0.04275 0.28007 0.06283 0.12002 0.02724 0.5216 0.08858 0.55087 0.08422 0.0185-0.0028 0.035 4e-3 0.0366 0.01519 2e-3 0.0115 0.0179 0.01797 0.0359 0.01529 0.0358-0.0053 0.2288 0.02336 0.29005 0.04299 0.0212 0.0086 0.0548 0.0095 0.0756 0.0064s0.0456 0.0011 0.0551 0.0078c0.0259 0.01923 0.47513 0.04442 0.82639 0.0462 0.0833 7.35e-4 0.1916 4e-3 0.24065 0.0078 0.0492 0.0044 0.12638 0.0018 0.17182-0.0045 0.0454-0.0068 0.0925-0.0046 0.10466 0.0036 0.0124 0.0099 0.0687 0.01392 0.12567 0.01188 0.28016-0.01025 0.50719-0.0088 0.52286 0.0028 9e-3 0.0065 0.0648 0.0064 0.12278-0.0023 0.0579-0.0086 0.11322-9e-3 0.12274-0.0023 0.0157 0.01213 0.21123 0.01366 0.50801 5e-3 0.0602-0.0012 0.11539 0.0042 0.12291 0.01304 8e-3 0.01062 0.0365 0.01266 0.0642 0.0085 0.11392-0.01696 0.30035 0.09064 0.3543 0.20455 0.0105 0.02296 0.0301 0.10412 0.0425 0.18037 0.0183 0.11599 0.0161 0.15569-0.0182 0.24216-0.0224 0.05715-0.0452 0.10891-0.0505 0.11534-5e-3 0.0058-0.0375 0.05959-0.0717 0.11785-0.0922 0.15772-0.29258 0.33692-0.55614 0.49729-0.0771 0.04702-0.22474 0.11557-0.2597 0.12078-0.0198 0.0029-0.0436 0.01437-0.0526 0.02653-0.028 0.03564-0.36154 0.1277-0.81904 0.22638-0.35304 0.07591-1.6188 0.30665-1.9502 0.35523-0.11695 0.01742-0.21177 0.04074-0.21723 0.05281-5e-3 0.01253-0.0708 0.03164-0.14582 0.04281-0.075 0.01116-0.19838 0.04399-0.27435 0.07208-0.076 0.02821-0.15875 0.05455-0.18396 0.0583-0.0251 0.0037-0.0445 0.01582-0.0428 0.02702 2e-3 0.0115-0.024 0.02416-0.0569 0.02906s-0.0637 0.01738-0.0683 0.02825c-4e-3 0.01239-0.0353 0.02922-0.0684 0.0409-0.12497 0.04483-0.30779 0.19063-0.40579 0.32339-0.0763 0.10331-0.10688 0.16983-0.13423 0.29198-0.0585 0.26136 9e-3 0.72562 0.18858 1.2935 0.12369 0.39133 0.13932 0.43856 0.15508 0.4663 9e-3 0.01592 0.0303 0.06881 0.0474 0.11794 0.0335 0.09576 0.10691 0.27658 0.16358 0.40256 0.0193 0.04292 0.057 0.13102 0.0837 0.19575 0.10563 0.25649 0.13993 0.33816 0.18905 0.45082 0.0281 0.06455 0.0626 0.14381 0.0766 0.17601 0.0603 0.13935 0.29037 0.61078 0.33156 0.67948 0.0122 0.02095 0.0397 0.0779 0.0603 0.12638 0.0638 0.15077 0.19055 0.41781 0.21252 0.448 0.0115 0.01585 0.0325 0.05926 0.0467 0.09653 0.0146 0.03718 0.0353 0.08066 0.0469 0.0965 0.0314 0.04269 0.14898 0.26451 0.30205 0.57002 0.0748 0.14921 0.14566 0.2842 0.15753 0.29999 0.0125 0.01572 0.0333 0.05957 0.0476 0.09705 0.0147 0.0376 0.053 0.1112 0.0862 0.16351 0.0735 0.11602 0.0884 0.14332 0.25812 0.47174 0.0742 0.14352 0.14594 0.27568 0.15944 0.29355 0.0136 0.01775 0.0261 0.04285 0.0279 0.0551 2e-3 0.01285 0.0218 0.05188 0.0443 0.08745 0.0652 0.1031 0.11292 0.18388 0.15173 0.2565 0.0199 0.03702 0.0463 0.08467 0.0586 0.10566 0.0444 0.07563 0.11938 0.213 0.16285 0.29854 0.0244 0.04792 0.0602 0.11276 0.0795 0.14432 0.0194 0.03144 0.0876 0.14782 0.15164 0.25856 0.064 0.11074 0.12769 0.21589 0.14138 0.23376 0.0138 0.01772 0.0265 0.04186 0.0282 0.05325 3e-3 0.0177 0.15701 0.2983 0.22781 0.41395 0.0132 0.02076 0.055 0.09438 0.0936 0.16305 0.18471 0.32811 0.27831 0.47915 0.29533 0.47662 0.0102-0.0015 0.0212 0.01388 0.0243 0.03467 3e-3 0.02064 0.0124 0.04275 0.0216 0.04928 0.0226 0.01685 0.12655 0.26454 0.1373 0.32722 5e-3 0.02846 0.0221 0.06151 0.0382 0.07354 0.0396 0.02927 0.17965 0.95788 0.15768 1.0521-8e-3 0.03552-0.0228 0.12434-0.0331 0.19741-0.0103 0.07302-0.0255 0.13391-0.0339 0.13516-9e-3 0.0013-0.0136 0.01379-0.0118 0.02574 9e-3 0.05913-0.20386 0.3688-0.30031 0.43726-0.0305 0.02188-0.0593 0.04557-0.064 0.05308-0.0341 0.0545-0.57173 0.18772-0.64273 0.1589zm-5.9396-16.881c-9e-3 -0.01047-0.0466-0.0137-0.0845-0.0081s-0.0759 0.0021-0.0845-8e-3c-9e-3 -0.01048-0.0324-0.01582-0.0529-0.01277-0.0205 3e-3 -0.0656-0.0047-0.1001-0.01631-0.0346-0.01187-0.0789-0.01947-0.0985-0.01655-0.0196 0.0029-0.037-0.0037-0.0388-0.01531-2e-3 -0.0115-0.017-0.01812-0.034-0.01559-0.017 0.0025-0.0708-0.0128-0.11923-0.03424-0.0486-0.02124-0.0936-0.03823-0.10028-0.03724-0.0664 0.0099-0.60621-0.35886-0.64682-0.44182-0.0115-0.02312-0.027-0.04103-0.0351-0.03983-8e-3 0.0012-0.0497-0.04641-0.0924-0.10586-0.0429-0.05962-0.0843-0.11193-0.0922-0.11653-8e-3 -0.0038-0.039-0.05614-0.0692-0.1147-0.0302-0.05864-0.0621-0.10841-0.0711-0.11088-9e-3 -0.0011-0.02-0.02931-0.0246-0.05981-5e-3 -0.03054-0.0184-0.0627-0.03-0.07187-0.0424-0.03228-0.13136-0.45642-0.14579-0.69518-8e-3 -0.12559-8e-3 -0.24558-1e-3 -0.26636 7e-3 -0.02082 0.0213-0.09066 0.032-0.15516 0.0248-0.15043 0.0868-0.34133 0.17003-0.52512 0.0693-0.15271 0.1857-0.3154 0.39749-0.55504 0.0317-0.03593 0.19274-0.16168 0.27032-0.21116 0.0157-0.01022 0.0465-0.0312 0.0686-0.04669 0.0219-0.01641 0.0724-0.03976 0.11201-0.05347 0.0396-0.01378 0.0757-0.03386 0.0805-0.04465 4e-3 -0.01239 0.0355-0.02368 0.0684-0.02858s0.0586-0.01793 0.0569-0.02912c-2e-3 -0.0115 0.0359-0.02644 0.0835-0.03352 0.0476-0.0071 0.14024-0.03008 0.2058-0.05129 0.12639-0.04047 0.56215-0.07057 0.56691-0.03863 1e-3 9e-3 0.034 0.01164 0.0726 0.0059 0.0386-0.0057 0.0771-0.0023 0.0857 0.0079 9e-3 0.01047 0.0312 0.01645 0.05 0.01364 0.0189-0.0028 0.0628 0.0051 0.0973 0.01673 0.0346 0.01205 0.0802 0.01928 0.10128 0.01614 0.0212-0.0032 0.0396 2e-3 0.0408 0.0099 1e-3 0.0077 0.0461 0.02604 0.0995 0.03917 0.0534 0.01314 0.0985 0.03239 0.0999 0.04243 2e-3 0.0115 0.0128 0.01686 0.0249 0.01507 0.0299-0.0044 0.34818 0.1847 0.44075 0.26198 0.13972 0.11664 0.35419 0.36829 0.44085 0.51729 0.16576 0.28508 0.2267 0.47861 0.26877 0.85392 0.0177 0.15944 0.0263 0.30811 0.0189 0.33036-8e-3 0.02265-0.0218 0.09795-0.0318 0.16817-0.0186 0.13092-0.11667 0.47152-0.14955 0.51897-0.0101 0.01466-0.0378 0.06232-0.0616 0.10596-0.10105 0.18584-0.36325 0.51223-0.41798 0.52038-0.012 0.0018-0.0206 0.01096-0.0194 0.01904 1e-3 9e-3 -0.0362 0.04005-0.0831 0.0697-0.047 0.02971-0.0846 0.06059-0.0834 0.06911 1e-3 0.0077-0.0144 0.01816-0.0346 0.02116s-0.0443 0.01438-0.0534 0.0256c-9e-3 0.01309-0.0646 0.04479-0.12323 0.07447-0.0585 0.02981-0.11407 0.06285-0.12337 0.07349-9e-3 0.01059-0.0513 0.02434-0.0931 0.03057-0.0419 0.0062-0.0806 0.0212-0.0858 0.03336-6e-3 0.01404-0.13943 0.04141-0.33315 0.07026s-0.32975 0.04122-0.33914 0.02986z"/></g></g></svg>
