<svg width="304.237" height="55.62" viewBox="0 0 80.496 14.716" xmlns="http://www.w3.org/2000/svg"><g fill="#fff"><path d="M0 .969H2.01v10.955h3.304v1.825H0zm6.281 0h2.008v12.78H6.281zm3.505 0h2.52l1.954 7.65h.036V.969h1.79v12.78h-2.064l-2.41-9.33h-.036v9.33h-1.79zm7.797 0h2.008v5.386L22.147.969h2.009L21.764 5.66l2.428 8.088h-2.1l-1.698-5.696-.803 1.625v4.071h-2.008zm10.48 0h2.52l1.953 7.65h.036V.969h1.79v12.78h-2.063l-2.41-9.33h-.037v9.33h-1.79zm9.348 0h2.72l2.082 12.78h-2.009l-.365-2.537v.036h-2.282l-.365 2.501h-1.863zm2.19 8.545l-.894-6.318h-.036l-.877 6.318zm3.58-8.545h2.957q1.497 0 2.246.803.748.804.748 2.355v1.26q0 1.552-.748 2.356-.749.803-2.246.803h-.95v5.203H43.18zm2.957 5.751q.493 0 .73-.274.256-.274.256-.93V4q0-.658-.256-.931-.237-.274-.73-.274h-.95V6.72zm6.993 7.212q-1.479 0-2.264-.84-.785-.84-.785-2.373v-6.72q0-1.533.785-2.373.785-.84 2.264-.84 1.479 0 2.264.84.785.84.785 2.374v6.719q0 1.533-.785 2.373-.785.84-2.264.84zm0-1.826q1.04 0 1.04-1.26V3.872q0-1.26-1.04-1.26t-1.04 1.26v6.974q0 1.26 1.04 1.26zM57.53.97h2.009v10.955h3.304v1.825h-5.313zm6.28 0h2.01v12.78h-2.01z" style="text-align:center" aria-label="Link Napoli" font-size="18.258" font-family="Bebas Neue" letter-spacing="0" text-anchor="middle" paint-order="stroke markers fill"/><path d="M70.441 2.502l-.05-.45-.036-.33-.03-.021a.136.136 0 00-.036-.02.117.117 0 01-.033-.02c-.015-.01-.033-.018-.04-.017-.006 0-.011-.002-.012-.005a.155.155 0 00-.045-.029.154.154 0 01-.046-.028c0-.004-.007-.006-.013-.005-.006 0-.024-.007-.04-.018-.014-.01-.031-.019-.036-.018-.006 0-.01-.002-.011-.006 0-.003-.017-.014-.036-.024a.682.682 0 01-.057-.031.086.086 0 00-.027-.014.179.179 0 01-.041-.022.169.169 0 00-.042-.022c-.004 0-.013-.003-.02-.009a.982.982 0 00-.07-.039.95.95 0 01-.06-.033.26.26 0 00-.033-.017c-.042-.02-.067-.037-.069-.048-.001-.012.076-.052.109-.057.011-.001.023-.007.025-.013.002-.005.013-.01.022-.012a.083.083 0 00.033-.013.602.602 0 01.131-.057c.011-.001.022-.007.024-.012.002-.006.014-.011.026-.013.012-.002.024-.007.026-.012.002-.006.026-.015.053-.023.027-.007.049-.017.048-.021-.001-.005.01-.01.026-.012.014-.002.028-.008.03-.014.003-.005.015-.01.027-.012s.023-.008.025-.013c.003-.005.027-.015.054-.022.027-.007.048-.017.048-.022-.001-.005.009-.01.021-.01a.1.1 0 00.038-.015.155.155 0 01.037-.019c.023-.008.028-.022.043-.118a.316.316 0 01.016-.067.052.052 0 00.004-.026.085.085 0 01.003-.034.696.696 0 00.014-.074.324.324 0 01.015-.067.052.052 0 00.005-.026.085.085 0 01.003-.033.577.577 0 00.02-.13c-.001-.008.002-.015.007-.016.005 0 .008-.01.007-.02A.087.087 0 0170.5.258a.617.617 0 00.015-.074.3.3 0 01.014-.066.045.045 0 00.004-.026c-.003-.024.015-.094.026-.095.011-.002.027.011.065.055l.042.045a1.816 1.816 0 01.15.17c.004 0 .017.011.029.026a.26.26 0 00.027.031 6.8 6.8 0 00.24.262.04.04 0 01.015.022c0 .006.01.015.021.021.011.006.021.016.022.022.002.01.049.005.218-.019.12-.016.282-.035.363-.041a.524.524 0 00.156-.023c.007-.008.033-.011.088-.012l.084-.002c.021-.003 0 .06-.04.115a.798.798 0 00-.03.051.704.704 0 01-.024.042.807.807 0 00-.026.046c-.023.042-.04.07-.052.09a2.186 2.186 0 00-.05.087 1.845 1.845 0 01-.056.096 1.006 1.006 0 00-.043.076.877.877 0 01-.034.06.493.493 0 00-.026.046.94.94 0 01-.035.06c-.015.023-.015.043.002.072.006.011.028.055.047.099.02.043.041.087.048.098.006.01.012.028.014.037.001.01.006.018.011.017.005 0 .01.005.011.013.002.014.03.075.055.122l.046.096a4.729 4.729 0 01.133.281c.007.017.005.02-.018.023a.073.073 0 01-.036-.002.365.365 0 00-.067-.016.344.344 0 01-.066-.016.057.057 0 00-.031-.003c-.012.002-.022-.001-.022-.006-.001-.005-.01-.008-.022-.006a.13.13 0 01-.049-.007.12.12 0 00-.045-.008c-.01.001-.018-.002-.018-.007-.001-.005-.011-.007-.023-.006a.057.057 0 01-.03-.003.374.374 0 00-.07-.016c-.032-.005-.06-.012-.06-.016s-.008-.006-.016-.005a.572.572 0 01-.125-.02 1.783 1.783 0 00-.13-.028l-.065-.012-.023.024a.109.109 0 01-.033.024 1.264 1.264 0 00-.22.218c0 .006-.007.01-.014.01-.007.001-.012.006-.012.01.001.006-.005.013-.014.017a.21.21 0 00-.043.039.212.212 0 01-.043.04c-.009.003-.015.01-.014.015 0 .005-.003.01-.009.01-.005 0-.019.013-.03.028-.012.014-.027.027-.033.027-.006.001-.011.006-.012.01a.8.8 0 01-.164.145c-.019.003-.02.001-.032-.118zM79.435 14.71a.269.269 0 00-.076-.005c-.033 0-.063-.002-.067-.007-.005-.005-.015-.008-.025-.006a.27.27 0 01-.075-.016.347.347 0 00-.067-.016.01.01 0 01-.011-.01c-.001-.005-.008-.008-.016-.007-.019.002-.082-.022-.084-.033 0-.004-.008-.007-.016-.005-.009 0-.016-.003-.017-.008-.001-.006-.006-.01-.01-.01-.02.004-.162-.096-.254-.177a16.439 16.439 0 00-.08-.072.674.674 0 01-.052-.05 3.834 3.834 0 00-.09-.093.526.526 0 01-.082-.091c-.004 0-.013-.007-.02-.018a3.366 3.366 0 00-.08-.102.68.68 0 01-.068-.095c0-.006-.005-.01-.01-.01-.01.001-.05-.053-.053-.07-.001-.008-.006-.015-.01-.017-.009-.002-.026-.026-.148-.21a4.43 4.43 0 01-.174-.279 4.086 4.086 0 00-.077-.127.302.302 0 01-.034-.066c-.001-.008-.007-.014-.012-.014-.006.001-.012-.01-.014-.024s-.008-.025-.013-.024c-.005 0-.015-.013-.022-.03a.241.241 0 00-.022-.047 2.293 2.293 0 01-.111-.203.388.388 0 00-.035-.062.367.367 0 01-.035-.063.092.092 0 00-.014-.028.401.401 0 01-.057-.102c-.001-.01-.006-.016-.012-.015-.006 0-.012-.008-.013-.02a.094.094 0 00-.016-.036 1.307 1.307 0 01-.054-.1c-.088-.17-.11-.208-.118-.21-.004 0-.009-.009-.01-.017a.082.082 0 00-.014-.031 1.879 1.879 0 01-.064-.108c-.105-.188-.244-.404-.262-.41-.005 0-.01-.008-.01-.015a1.134 1.134 0 00-.195-.235.607.607 0 00-.141-.098c-.008 0-.014-.003-.015-.008-.001-.006-.01-.01-.021-.008-.011.002-.024-.001-.028-.006-.011-.014-.103.002-.132.023a.479.479 0 00-.123.164c-.08.175-.165.553-.263 1.163-.037.236-.049.304-.062.368a11.06 11.06 0 00-.042.22 6.684 6.684 0 01-.056.268 5.13 5.13 0 01-.093.347 2.38 2.38 0 01-.079.235 1.777 1.777 0 01-.222.428 1.086 1.086 0 01-.155.157.32.32 0 01-.047.031c-.024.014-.051.03-.06.037a.124.124 0 01-.05.017.244.244 0 00-.064.022c-.026.013-.038.015-.055.007a.116.116 0 00-.054-.005c-.064.01-.269-.045-.288-.076-.003-.004-.01-.007-.016-.006-.021.003-.119-.085-.156-.141a4.753 4.753 0 00-.05-.072.094.094 0 01-.014-.035c-.002-.01-.007-.022-.013-.027-.056-.044-.14-.63-.122-.847l.008-.137c.003-.088.011-.205.022-.357l.01-.116a.368.368 0 01.01-.072.094.094 0 00.005-.04.1.1 0 01.004-.04.439.439 0 00.011-.066l.01-.08a8.966 8.966 0 00.048-.403c.003-.011.007-.057.011-.1.004-.044.01-.089.012-.1a.839.839 0 00.011-.107 6.425 6.425 0 00.03-.536c0-.045.002-.095.003-.11.002-.014.002-.075.002-.135l.001-.255a4.8 4.8 0 00-.005-.182 9.55 9.55 0 01-.007-.202c-.008-.398-.128-1.247-.24-1.701a50.553 50.553 0 01-.052-.212 5.523 5.523 0 00-.086-.326 1.54 1.54 0 00-.034-.115 1.167 1.167 0 01-.028-.085 11.013 11.013 0 00-.336-.99 10.054 10.054 0 00-.257-.656 2.762 2.762 0 01-.084-.207 9.8 9.8 0 00-.18-.423 5.429 5.429 0 00-.038-.088 6.852 6.852 0 01-.118-.27 9.927 9.927 0 00-.22-.5 2.78 2.78 0 00-.075-.172 4.724 4.724 0 00-.165-.336 2.902 2.902 0 01-.086-.17 2.191 2.191 0 01-.045-.093 2.26 2.26 0 00-.045-.093 1.323 1.323 0 01-.037-.078 4.172 4.172 0 00-.046-.1.299.299 0 01-.023-.062c-.001-.01-.007-.021-.012-.024-.006-.002-.015-.019-.02-.036a3.567 3.567 0 00-.039-.112 2.725 2.725 0 01-.05-.155c-.027-.1-.065-.414-.05-.432a.048.048 0 00.007-.032.486.486 0 01.229-.333c.008-.001.015-.007.014-.013-.002-.013.077-.024.087-.012.004.005.019.008.032.006.013-.002.027 0 .031.005s.022.01.039.011c.017.002.032.007.033.012 0 .006.006.008.013.008a.641.641 0 01.19.11c.12.092.166.134.262.241a2.952 2.952 0 01.257.308l.075.1a15.624 15.624 0 01.513.756.687.687 0 01.066.1c0 .006.094.149.24.366.072.106.131.195.131.198a11.794 11.794 0 01.172.232c.052.07.309.364.33.378.004.002.048.045.098.095l.097.096c.006.005.115.1.167.148.04.037.382.293.432.324l.092.06a1.902 1.902 0 00.153.094c.006.005.032.02.057.033a.55.55 0 01.051.03.506.506 0 00.051.03.963.963 0 01.051.028.42.42 0 00.114.055c.006.01.167.095.318.17l.12.06c.003.004.083.044.178.089l.185.088a.4.4 0 00.05.02l.071.027c.041.018.09.037.177.07a.712.712 0 01.077.032c.006.005.019.007.03.005.01-.001.018.002.019.008 0 .005.007.01.013.008.006 0 .071.018.144.042.074.024.139.043.146.042.007 0 .013.003.013.009.001.005.009.009.017.008a.346.346 0 01.078.016 3.282 3.282 0 00.157.045.09.09 0 00.04.004c.011-.002.021.002.022.007.001.006.008.01.017.008a.084.084 0 01.034.005c.017.005.045.012.138.033l.14.033c.06.014.26.046.276.044.009-.001.017.002.018.008 0 .005.009.009.018.008a.684.684 0 01.145.022c.01.004.027.005.038.004s.023 0 .027.004c.013.01.238.024.414.026.042 0 .096.003.12.005a.458.458 0 00.087-.002c.023-.003.046-.002.052.002.006.005.035.007.063.007.14-.004.254-.003.262.003a.162.162 0 00.062 0 .161.161 0 01.061-.001c.008.006.106.007.255.004.03 0 .057.002.061.007.004.005.018.006.032.004.057-.008.15.047.177.104a.53.53 0 01.02.09c.01.059.008.079-.01.122a.51.51 0 01-.062.116.825.825 0 01-.28.247.668.668 0 01-.13.06c-.01.001-.022.007-.027.013-.014.018-.182.063-.411.11-.177.037-.812.148-.978.171a.344.344 0 00-.11.026c-.002.006-.035.015-.073.02a.834.834 0 00-.137.036.744.744 0 01-.093.028c-.012.002-.022.008-.021.014 0 .006-.012.012-.029.014s-.032.009-.034.014c-.002.006-.018.015-.034.02a.532.532 0 00-.205.16.334.334 0 00-.068.147c-.03.13.002.363.09.648a2.179 2.179 0 00.099.294c.016.048.052.139.08.202l.041.098a10.735 10.735 0 00.131.315c.03.07.143.307.164.342.006.01.02.04.03.063a2.85 2.85 0 00.127.274c.008.019.018.04.024.049.015.021.073.133.149.286.037.075.072.143.078.151a.24.24 0 01.023.049.597.597 0 00.043.082c.036.059.043.072.127.237a2.536 2.536 0 00.093.176.19.19 0 00.022.044 2.041 2.041 0 01.104.182c.022.038.059.107.08.15.012.024.03.057.04.073l.075.13c.031.055.063.108.07.117a3.085 3.085 0 01.173.317c.09.165.137.241.146.24.005 0 .01.007.012.018.001.01.006.021.01.024a.732.732 0 01.068.165c.002.014.01.03.019.037.02.015.086.48.075.528a1.665 1.665 0 00-.017.098c-.006.037-.014.067-.018.068-.004 0-.007.007-.006.013.004.03-.103.184-.152.218a.2.2 0 00-.032.026c-.018.027-.287.092-.323.077zM76.52 6.234c-.004-.006-.023-.007-.042-.005s-.038.001-.042-.004c-.005-.005-.017-.008-.027-.007a.14.14 0 01-.05-.008.137.137 0 00-.05-.009c-.01.002-.018-.002-.019-.008 0-.005-.008-.009-.017-.008a.172.172 0 01-.06-.017.273.273 0 00-.05-.02c-.033.006-.302-.181-.322-.223-.005-.012-.013-.02-.017-.02a.21.21 0 01-.046-.053.493.493 0 00-.046-.06.29.29 0 01-.034-.057.208.208 0 00-.035-.056c-.005 0-.01-.014-.012-.03-.003-.015-.01-.031-.015-.036-.021-.016-.064-.229-.07-.349a.742.742 0 010-.133.772.772 0 00.016-.078c.013-.075.045-.17.088-.262.035-.076.094-.157.2-.277a1.11 1.11 0 01.171-.128.254.254 0 01.057-.026c.02-.007.038-.017.04-.022.002-.006.018-.012.035-.014s.029-.009.028-.014c0-.006.018-.014.042-.017a.8.8 0 00.103-.025c.064-.02.282-.033.285-.017 0 .004.017.006.036.003.02-.003.039 0 .043.004.004.006.015.009.025.007a.14.14 0 01.049.01c.017.005.04.01.05.008.01-.002.02 0 .02.005.001.004.024.013.05.02.027.006.05.016.05.021a1.13 1.13 0 01.232.14c.07.06.177.187.22.262.081.143.111.24.13.428a.96.96 0 01.01.166.682.682 0 00-.017.084c-.01.066-.06.236-.077.26a.887.887 0 00-.031.052c-.052.093-.184.256-.212.26-.006 0-.01.005-.01.009.001.004-.018.02-.041.035-.024.014-.043.03-.042.034 0 .004-.008.009-.018.01s-.022.007-.027.013a.282.282 0 01-.062.037.367.367 0 00-.062.036c-.004.005-.026.012-.047.015-.02.003-.04.01-.043.017-.003.007-.07.02-.167.033s-.165.02-.17.014z"/></g></svg>