<svg width="410.294" height="410.295" viewBox="0 0 108.557 108.557" xmlns="http://www.w3.org/2000/svg"><circle cx="54.279" cy="54.279" r="54.279" fill="#fff" paint-order="stroke fill markers"/><path d="M64.208 46.044c-.46-2.248-.494-2.269-.913-.54-.317 1.312-.913 1.798-2.2 1.798-1.482 0-1.765-.346-1.765-2.156 0-1.88.254-2.154 1.977-2.129 1.59.023 1.977-.294 1.977-1.618 0-.918.438-1.645.99-1.645 1.535 0 2.588 1.706 2.132 3.452-.308 1.177-.097 1.58.829 1.58 1.03 0 1.161-.43.77-2.516-.275-1.465-.182-2.516.222-2.516.382 0 .906 1.051 1.165 2.336.258 1.285.63 2.903.824 3.595.253.898-.059 1.258-1.09 1.258-.793 0-1.643-.324-1.887-.72-.784-1.266-1.676-.767-1.287.72.214.818.022 1.438-.445 1.438-.451 0-1.036-1.052-1.299-2.337zm-2.128-.11c.449-1.17-.155-2-1.053-1.445-.816.504-.798 2.454.024 2.454.353 0 .816-.454 1.029-1.008zm3.121-4.503c-.263-.264-.479-.048-.479.48 0 .527.216.742.48.479a.68.68 0 000-.959zm6.135 3.57c-1.622-3.162-1.625-5.135-.01-6.266 2.05-1.437 2.618-.83.949 1.014-1.272 1.405-1.262 1.442.381 1.442 1.591 0 1.612.055.361.97-2.02 1.476-.503 3.36 1.62 2.014.71-.45.764-1.328.225-3.725-.926-4.12-.3-4.922 1.863-2.392l1.757 2.055-.36-2.177c-.329-1.991-.134-2.248 2.286-3.006 1.456-.456 3.294-1.04 4.084-1.298 1.404-.458 1.403-.438-.045.856-1.369 1.222-1.415 1.59-.604 4.771.646 2.53.662 3.374.06 3.174-.452-.15-1.112-1.543-1.469-3.094-.783-3.408-.713-3.313-2.056-2.797-.894.343-.964.99-.394 3.662.381 1.785.516 3.422.3 3.637-.214.216-1.234-.535-2.265-1.668-1.871-2.056-1.874-2.056-1.376-.263.274.989.643 2.184.82 2.656.183.486-.25.823-.997.776-.726-.046-2.028.15-2.893.434-1.143.375-1.756.163-2.237-.776zm14.246-6.146c.017-5.702.88-6.332 3.137-2.292 1.048 1.875 1.695 3.603 1.437 3.839-.257.236-.613.026-.79-.469-.587-1.644-2.357-.97-2.357.899 0 .988-.323 1.797-.719 1.797-.395 0-.714-1.698-.708-3.774zm2.146-1.618a.36.36 0 00-.36-.36.36.36 0 00-.359.36.36.36 0 00.719 0zm3.021 1.259c-1.248-3.302-1.652-5.932-.91-5.932.384 0 .913 1.136 1.173 2.525.26 1.388.724 2.678 1.03 2.867 1.01.624 2.286-1.694 1.791-3.253-.518-1.633 1.225-3.532 3.241-3.53.775.001.632.374-.509 1.326-1.654 1.38-1.524 2.405.22 1.736 1.388-.532 1.269.496-.18 1.556-1.52 1.11-.696 2.507 1.189 2.014.803-.21 1.437-.022 1.437.427 0 1.105-4.122 1.018-4.493-.094-.184-.553-.63-.277-1.163.719-1.144 2.137-1.918 2.038-2.826-.362z" fill="#dd2120"/><path d="M51.793 98.894c-6.217-1.16-16.573-8.33-19.107-13.23-2.896-5.6-5.293-15.616-5.035-21.042.224-4.721 2.233-10.764 4.857-14.607l2.075-3.04-2.587-6.249c-2.719-6.568-2.86-9.6-.447-9.6 1.716 0 3.452 1.989 8.162 9.347 4.119 6.433 6.548 8.71 12.438 11.662 5.082 2.547 8.31 3.487 13.847 4.036 3.817.378 4.88.745 5.072 1.75.267 1.395-3.552 3.398-6.494 3.405-.902.002-2.894.352-4.426.778l-2.786.773.44 3.213c.243 1.767 2.423 7.568 4.845 12.892 2.957 6.498 4.291 10.27 4.06 11.477l-.343 1.799 4.358-2.392c2.866-1.572 4.827-3.238 5.725-4.864.75-1.36 2.062-3.752 2.913-5.317.85-1.564 2.113-3.424 2.805-4.133 1.31-1.344 1.707-4.522.645-5.178-.337-.208-.478-2.216-.313-4.462.336-4.588-.75-10.073-2.802-14.157-1.434-2.853-1.201-5.53.481-5.53.534 0 1.105-.404 1.269-.896.455-1.365 4.617 3.543 6.857 8.085 1.794 3.636 1.95 4.648 1.95 12.6v8.647l-3.394 6.81c-3.997 8.02-5.705 10.072-11.073 13.304-6.184 3.724-16.56 5.505-23.993 4.12zm8.215-8.345c-1.317-1.247-3.697-4.89-5.288-8.096-2.826-5.692-4.683-8.115-5.554-7.244-.237.237-1.152 3.114-2.032 6.393-.88 3.278-1.83 6.492-2.113 7.141-.401.921.191 1.45 2.694 2.406 3.595 1.373 9.928 2.328 12.796 1.93l1.891-.262zM39.376 73.762c.395-7.34-.205-12.27-2.39-19.626-.594-2.003-1.391-3.45-1.77-3.215-2.98 1.842-4.742 13.808-3.226 21.914.895 4.781 2.145 7.897 3.168 7.897.315 0 1.017.83 1.56 1.844l.986 1.844.64-1.664c.35-.915.815-4.963 1.032-8.994zm10.269-24.15c-4.003-2.024-3.435-7.921.91-9.45 4.828-1.697 8.488 5.649 4.411 8.855-2.234 1.757-2.882 1.83-5.321.596zm6.15-13.633c-1.877-6.63-2.049-7.729-1.21-7.729.436 0 1.333 1.941 1.993 4.314 1.212 4.359 1.906 5.203 2.661 3.235.228-.593.88-1.078 1.45-1.078.89 0 .902-.506.087-3.595-.798-3.025-.792-3.595.036-3.595.55 0 1.352 1.352 1.814 3.056.456 1.68 1.09 3.917 1.408 4.971.318 1.054.39 2.105.158 2.337-.807.807-1.525.409-2.01-1.117-.463-1.46-.558-1.425-1.916.719-2.053 3.242-3.238 2.84-4.472-1.518zm9.75 0c-.403-1.285-1.095-3.793-1.536-5.572-.441-1.78-.966-3.801-1.167-4.493-.657-2.265 1.452-1.368 4.203 1.786l2.675 3.067-.698-2.512c-.867-3.126-.898-5.756-.066-5.756.786 0 3.911 12.236 3.282 12.852-.253.247-1.874-1.11-3.604-3.014l-3.144-3.462.943 3.103c.519 1.706 1.179 3.83 1.466 4.72.384 1.188.238 1.618-.548 1.618-.59 0-1.401-1.052-1.805-2.337zm8.522-2.715c-.441-.823-1.227-2.854-1.747-4.513-.52-1.66-1.182-3.583-1.47-4.275-.363-.876-.19-1.258.573-1.258.603 0 1.384.864 1.736 1.92l.64 1.922.945-2.28c1.176-2.838 3.26-3.252 2.19-.435-.386 1.015-1.04 2.475-1.451 3.245-.803 1.5-.7 1.582 3.087 2.411 3.003.658 2.486 2.114-.575 1.618-2.25-.365-2.502-.256-2.128.924.61 1.919-.847 2.502-1.8.721z"/><path d="M24.393 27.709l-4.167 2.632-.217-4.924-3.79-3.15 4.615-1.728 1.824-4.579 3.07 3.856 4.918.32-2.718 4.112 1.215 4.776z" fill="#dd2120" paint-order="stroke fill markers"/></svg>