<svg width="410.294" height="410.295" viewBox="0 0 108.557 108.557" xmlns="http://www.w3.org/2000/svg"><circle cx="54.279" cy="54.279" r="54.279" fill="#fff" paint-order="stroke fill markers"/><path d="M20.52 32.016c-.038-.038-.014-.8.054-1.692.068-.893.13-2.078.14-2.635l.014-1.011-2.021-1.564c-1.112-.86-2.022-1.615-2.022-1.68 0-.063 1.176-.395 2.615-.736l2.615-.621.93-2.36c.51-1.298 1.003-2.373 1.095-2.39.091-.016.764.922 1.495 2.086l1.329 2.115.891.122c.49.067 1.652.129 2.582.138.958.009 1.742.099 1.81.208.064.105-.636 1.057-1.558 2.114l-1.676 1.923.682 2.48c.376 1.364.64 2.523.587 2.576-.053.053-1.14-.317-2.416-.824-1.276-.506-2.419-.92-2.539-.92-.2 0-.917.426-3.593 2.138-.52.332-.975.572-1.014.533zM74.498 48.287c-.531-.214-.898-.887-.63-1.156.143-.142.326-.08.644.219.626.588 1.224.452 1.67-.382.344-.643.347-.708.055-1.32-.218-.457-.675-.861-1.583-1.4-1.665-.99-1.954-1.323-1.918-2.213.037-.92.416-1.639 1.253-2.374.742-.651 1.596-.729 1.704-.155.047.247-.063.322-.47.322-.994 0-2.14 1.758-1.692 2.595.1.187.853.77 1.672 1.296 1.944 1.247 2.367 2.124 1.699 3.525-.482 1.01-1.447 1.429-2.404 1.043zm4.6-2.035c-.592-.22-1.317-1.22-1.619-2.236-.809-2.724.324-6.135 1.681-5.061 1.515 1.198 2.149 2.66 2.055 4.736-.09 1.997-.921 3.003-2.117 2.56zm1.174-1.092c.555-1.095.107-3.883-.795-4.955-.943-1.122-1.542-.449-1.542 1.733 0 1.343.402 2.641 1.027 3.316.532.573.99.54 1.31-.094zm3.418-.727c-2.113-1.288-2.993-6.097-1.406-7.683.387-.388.58-.445 1.209-.36.761.102 1.178.453.885.747-.094.094-.407.077-.741-.04-.518-.18-.63-.151-1.05.27-.451.45-.467.54-.38 2.086.07 1.201.214 1.88.565 2.647.852 1.86 1.973 2.5 2.628 1.499.351-.536.63-.598.621-.138-.007.408-.34.845-.855 1.12-.552.293-.792.27-1.477-.148zm3.19-1.436c-.182-.296-1.382-5.118-1.507-6.058-.134-1.01.16-1.503.448-.754.25.648 1.528 5.883 1.559 6.384.027.442-.311.732-.5.428zm1.923-.244c-.231-.555-.715-4.294-.854-6.603-.181-3.02.387-2.979 1.859.131 2.23 4.713 2.132 4.468 1.822 4.587-.348.133-.302.185-.903-1.011-.47-.937-.51-.969-.833-.676-.687.621-.876 1.306-.694 2.51.187 1.235-.055 1.882-.397 1.062zm.53-5.88c-.305-.74-.605-1.39-.668-1.447-.148-.136.055 3.41.21 3.66.069.113.302-.028.564-.34l.447-.53zm-24.481 5.252c-.508-.275-.785-.742-.61-1.026.162-.262.418-.199.818.2.69.69 1.534.288 1.758-.84.185-.925-.186-1.472-1.738-2.559-1.073-.752-1.52-1.188-1.663-1.621-.373-1.13.463-2.807 1.708-3.428.804-.4 1.222-.328 1.222.212 0 .294-.086.346-.43.26-.739-.186-1.777 1.17-1.777 2.323 0 .569.129.715 1.472 1.677 2.008 1.437 2.435 2.408 1.723 3.91-.533 1.122-1.452 1.453-2.483.892zm27.61-2.61c-.485-1.513-1.132-3.94-1.536-5.758-.056-.253-.032-.574.053-.712.28-.452.634-.11.673.65.041.796.952 4.169 1.532 5.673l.355.92.31-.736c.17-.404.42-1.004.556-1.333.244-.59.515-.754.714-.433.056.09-.097.69-.339 1.333-.746 1.978-.87 2.18-1.325 2.18-.372 0-.49-.212-.994-1.785zm-22.804.82c-1.314-.898-2.344-3.712-2.129-5.816.13-1.264.3-1.715.897-2.37.635-.697 2.152-.452 2.152.349 0 .293-.074.348-.322.24-.177-.076-.581-.175-.898-.22-.54-.077-.596-.028-.9.766-.842 2.205.568 6.544 2.126 6.544.344 0 .602-.13.73-.368.174-.325.735-.529.735-.266 0 .368-.647 1.231-1.033 1.378-.63.24-.668.233-1.358-.238zm26.787-1.564c-.325-.634-1.366-4.853-1.441-5.84-.041-.535.014-.735.201-.735.18 0 .44.777.86 2.574.332 1.417.721 2.906.865 3.311.407 1.146.026 1.688-.485.69zm-23.415.176c-.25-.155-.63-1.58-1.154-4.324-.453-2.375-.485-3.255-.117-3.255.275 0 .34.221.67 2.299.113.708.411 2.146.663 3.195.434 1.806.417 2.38-.062 2.085zm1.681-1.217c-.144-.345-.477-1.69-.739-2.99-.262-1.298-.553-2.44-.648-2.535-.365-.372-.132-.868.873-1.857 1.181-1.163 1.992-1.665 2.185-1.354.069.111-.41.703-1.08 1.333l-1.205 1.133.18 1.011c.286 1.614.281 1.61 1.05.86.38-.372.792-.676.914-.676.44 0 .206.491-.619 1.295-.759.74-.83.883-.737 1.464.192 1.19.497 2.047.705 1.977.113-.038.42-.466.683-.953.262-.486.557-.895.655-.908.34-.045.296.812-.072 1.404-.966 1.559-1.71 1.835-2.145.795zm4.079-.8c-.161-.26-1.591-6.068-1.591-6.463 0-.2.097-.425.216-.498.23-.142.9.573 2.217 2.364.743 1.012 1.227 1.386.988.765-.062-.161-.328-1.494-.592-2.961-.437-2.43-.454-2.694-.19-2.958.356-.357.337-.415.746 2.194.17 1.078.512 2.801.76 3.829.25 1.027.453 2.028.453 2.224 0 .621-.514.386-1.127-.518-.9-1.326-2.221-2.988-2.374-2.988-.074 0 .115.93.42 2.069.306 1.138.566 2.268.577 2.51.021.442-.318.731-.503.431zm4.349-2.206c.16-2.146.668-7.07.777-7.54.142-.616-.13-.513-1.364.518-.999.835-1.49 1.013-1.49.54 0-.231 3.306-2.76 3.609-2.76.315 0 .314.09-.014 1.41-.147.59-.354 2.066-.46 3.28a268.378 268.378 0 01-.3 3.219l-.106 1.011 1.17-1.149c.642-.632 1.228-1.15 1.3-1.15.38 0 .043.748-.624 1.389-.417.4-1.04 1.161-1.385 1.692-.345.531-.76.966-.924.966-.256 0-.282-.193-.19-1.426zm4.779-1.114c-.341-.216-.696-1.374-1.166-3.807-.234-1.213-.531-2.27-.66-2.348-.466-.285.2-1.285 1.65-2.478.88-.725 1.596-1.003 1.596-.62 0 .088-.456.55-1.014 1.027-1.344 1.148-1.416 1.31-1.163 2.61.115.591.236 1.107.269 1.147.032.039.395-.233.807-.604.411-.372.827-.627.925-.567.244.151-.026.6-.82 1.365-.749.72-.805 1.108-.373 2.565.333 1.119.542 1.071 1.192-.271.386-.798.912-1.097.912-.519 0 .462-.507 1.415-1.096 2.06-.566.619-.694.672-1.06.44z" fill="#dd2120"/><path d="M54.756 100.052c-3.09-.49-6.536-1.599-9.196-2.961-3.414-1.75-5.01-2.88-7.232-5.12-2.184-2.203-3.682-4.197-4.755-6.334-.717-1.426-.885-1.94-.886-2.718-.001-.717-.093-1.043-.366-1.298-.258-.24-.424-.766-.567-1.791-.127-.912-.308-1.529-.489-1.66-.215-.158-.255-.379-.16-.884.077-.411-.016-1.478-.237-2.742-.644-3.664-.778-5.148-.685-7.587.089-2.329.263-3.746.622-5.058.278-1.016.795-2.632.97-3.034l.986-2.274c1.074-2.478 3.051-5.645 3.051-4.887 0 .057-.196.368-.436.69-.24.322-.642.999-.895 1.505-.252.505-.718 1.414-1.035 2.018-.317.604-.577 1.277-.577 1.495 0 .218-.136.717-.303 1.108-.502 1.177-.586 2.048-.403 4.176.135 1.567.112 2.468-.098 3.972-.349 2.49-.171 5.059.52 7.536.247.883.247 1.016.003 1.196-.242.177-.221.39.172 1.742.246.847.703 1.895 1.015 2.329.311.434.565.858.563.943-.001.084.307.758.685 1.498.567 1.106.752 1.327 1.051 1.249.367-.096.842.166.842.464 0 .089-.124.161-.276.161-.326 0-.34.089-.085.564a.733.733 0 00.583.356c.24 0 .723.369 1.245.952.476.531.942.897 1.054.828.111-.068.26-.642.333-1.274.072-.632.155-1.274.183-1.426.028-.152.18-.98.34-1.839.85-4.58 1.066-10.432.565-15.31-.287-2.805-1.084-6.978-1.73-9.06l-1.023-3.31c-.665-2.154-1.1-3.181-1.457-3.437-.097-.07-.18-.36-.184-.644-.024-1.59-1.836.609-3.969 4.817-.718 1.416-1.252 2.368-1.188 2.115.064-.253.18-.708.26-1.012.3-1.156 2.295-4.609 3.65-6.316.429-.54.78-1.124.78-1.297 0-.394-1.871-5.352-2.992-7.929-1.178-2.707-1.607-4.128-1.606-5.318.001-1.797.966-2.772 2.14-2.164 1.218.63 3.37 3.375 5.217 6.655 4.314 7.66 6.41 9.954 12.23 13.387 5.166 3.048 9.753 4.57 14.88 4.934 4.405.314 4.76.377 5.013.886.25.503.02 1.132-.623 1.715-.612.554-2.476 1.2-4.099 1.42-5.968.81-6.62.949-7.576 1.602-1.37.934-1.386 2.792-.059 6.767 1.282 3.836 2.647 6.992 6.093 14.088 2.654 5.465 2.949 6.859 1.805 8.544-.616.908-.574 1.075.233.944.807-.13 5.68-2.563 7.19-3.588 1.632-1.108 3.325-3.008 3.466-3.89.065-.406.367-1.028.69-1.42.738-.892 1.22-1.763 1.22-2.202 0-.19.251-.494.56-.676.426-.253.53-.418.441-.7-.083-.262.037-.532.406-.918.415-.432.524-.716.524-1.362 0-.673.06-.815.343-.815.44 0 1.692-1.348 2.134-2.3.74-1.59.653-3.661-.185-4.42-.293-.265-.36-.568-.36-1.61 0-1.678.352-3.658.702-3.943.231-.19.242-.345.063-.941-.118-.393-.214-1.13-.214-1.636 0-.507-.113-1.242-.251-1.634-.286-.814-1.129-4.217-1.312-5.3-.067-.397-.568-1.558-1.112-2.578-.69-1.292-.959-1.98-.884-2.266.128-.49-.212-.96-.694-.96-.552 0-.475-1.16.102-1.539.255-.167.472-.511.506-.801.081-.707.54-.709.98-.004.204.326.506.618.672.65.384.074.984-1.044.708-1.32-.375-.375-.207-.639.32-.5.35.093.74.496 1.272 1.318.422.65 1.016 1.45 1.321 1.775.772.823 1.978 2.935 2.918 5.11.437 1.012.875 1.982.974 2.156.098.175.394 1.127.657 2.116.446 1.674.486 2.147.57 6.876.082 4.676.058 5.222-.3 6.897-.83 3.878-2.27 7.501-4.408 11.08-.59.988-1.133 1.998-1.207 2.245-.487 1.623-3.802 5.791-5.637 7.087-3.94 2.784-9.187 4.958-14.231 5.897-2.174.404-7.684.485-9.84.144zm7.89-5.136c3.03-.455 3.438-.78 1.494-1.186-2.922-.61-4.773-2.917-8.644-10.772-2.53-5.132-3.41-6.533-4.41-7.012-1.379-.662-2.088.467-3.055 4.868-1.064 4.844-1.695 7.16-2.388 8.774-.365.85-.616 1.62-.559 1.714.139.224 2.792 1.514 4.611 2.243 3.511 1.406 8.914 1.978 12.952 1.371zm-14.511-1.187c0-.249-.335-.421-.555-.285-.103.063-.14.192-.081.286.138.224.636.222.636-.001zm-3.2-1.8c-.187-.188-.34.094-.187.342.116.187.159.188.221 0 .043-.127.028-.282-.034-.343zm-10.226-7.89c0-.244-.05-.257-.276-.07-.152.127-.276.26-.276.3 0 .037.124.069.276.069.151 0 .276-.135.276-.299zm-3.004-18.033a.174.174 0 00-.246 0c-.067.068-.012.123.123.123s.19-.055.123-.123zm-1.594 8.86c0-.051.04-.093.092-.093.05 0 .091.042.091.092 0 .05-.04.092-.091.092a.092.092 0 01-.092-.092zm-.736-6.53c0-.135.055-.19.123-.122a.174.174 0 010 .245c-.068.067-.123.012-.123-.123zm0-2.36c0-.725.073-1.318.163-1.318.149 0 .06 2.383-.095 2.56-.038.041-.068-.517-.068-1.242zm.22-1.962c.003-.304.045-.405.091-.226.047.178.044.427-.007.551-.05.125-.088-.022-.084-.325zm.255-1.931c.18-1.21.465-1.77.327-.644-.062.506-.188 1.044-.281 1.196-.108.176-.124-.022-.046-.552zm2.652-1.564c0-.05.04-.092.092-.092.05 0 .091.042.091.092 0 .051-.04.092-.091.092a.092.092 0 01-.092-.092zm-2.208-.367c0-.152.08-.276.179-.276.098 0 .13.124.072.276-.058.151-.138.275-.178.275-.04 0-.073-.124-.073-.275zm.368-1.104c0-.05.042-.092.092-.092.05 0 .092.041.092.092 0 .05-.041.092-.092.092a.092.092 0 01-.092-.092zm20.531-8.075c-1.072-.4-1.987-1.231-2.568-2.336-1.042-1.982-.398-4.616 1.446-5.907a4.439 4.439 0 013.82-.623c3.187.93 4.403 4.813 2.304 7.359-1.2 1.456-3.376 2.112-5.002 1.507zm7.208-17.536c-.303-.356-.752-1.863-1.632-5.472-.321-1.315-.746-2.918-.945-3.563-.27-.879-.308-1.223-.15-1.38.353-.347.635.258 1.38 2.964 1.157 4.206 1.598 5.646 1.804 5.902.155.192.481-.06 1.522-1.173 1.16-1.243 1.733-1.578 1.733-1.015 0 .19-1.927 2.877-2.547 3.553-.54.589-.787.628-1.165.184zm9.257-1.655c-.529-1.008-3.338-11.178-3.338-12.086 0-.935 1.551.136 2.892 1.998 1.276 1.77 3.025 3.789 3.285 3.789.386 0 .332-.561-.406-4.244-.468-2.335-.609-3.383-.472-3.52.45-.45.7.091 1.3 2.822.767 3.492 1.399 5.968 1.85 7.253.278.791.3 1.02.11 1.178a.556.556 0 01-.498.095c-.338-.13-2.24-2.247-4.17-4.642-.835-1.037-1.6-1.885-1.699-1.885-.334 0-.392.54-.164 1.515.365 1.556 1.445 5.292 1.862 6.44.312.855.341 1.11.156 1.333-.3.361-.5.348-.708-.046zm-3.815-.519c-.151-.361-.477-1.5-.724-2.529l-.997-4.154c-.301-1.254-.504-2.35-.452-2.436.196-.317.625-.14.887.364.148.287.57 1.797.94 3.357.369 1.56.866 3.493 1.104 4.296.238.803.392 1.528.341 1.61-.242.392-.838.117-1.1-.508zm11.449-3.895c-.24-.48-.66-1.578-.933-2.437-1.251-3.947-1.465-4.572-1.904-5.572-.309-.703-.406-1.128-.286-1.248.39-.39.785.111 1.466 1.862.756 1.946 1.103 2.247 1.525 1.325.127-.278.566-1.292.975-2.253.41-.96.836-1.808.948-1.882.784-.522.612.371-.626 3.24-.606 1.404-1.102 2.74-1.102 2.967 0 .37.181.458 1.701.826 2.451.593 3.449.942 3.449 1.207 0 .4-.385.392-2.197-.046-2.002-.485-2.77-.536-2.77-.185 0 .132.208.769.46 1.414.556 1.417.57 1.655.096 1.655-.251 0-.501-.272-.802-.873z"/></svg>